Patient4_TMGait_0pt6_02_right_36_EMG.mot
version=1
nRows=29
nColumns=33
inDegrees=no
endheader
time	1LAddLong	2LGlutMax	3LGlutMed	4LIliopsoas	5LSemiMemb	6LBicFemLong	7LRecFem	8LVastMed	9LVastLat	10LGasMed	11LTibAnt	12lTibPost	13LPeroneusLong	14LSol	15LExtDigLong	16LFlexDigLong	17RAddLong	18RGlutMax	19RGlutMed	20RIliopsoas	21RSemiMemb	22RBicFemLong	23RRecFem	24RVastMed	25RVastLat	26RGasMed	27RTibAnt	28RTibPost	29RPeroneusLong	30RSol	31RExtDigLong	32RFlexDigLong
43.31	0.022125	-0.038605	-0.11658	0.02182	0.080414	-0.026093	-0.027313	0.006866	0.084534	0.004272	0.000305	0.008698	0.09903	-0.02121	0.037079	0.000916	-0.084076	-0.1294	0.28442	-0.039673	0.013733	0.053101	0.26199	0.16922	-0.008698	-0.004578	-0.19531	-0.002899	0.092621	-0.054474	-0.013123	-0.001526
43.311	0.01297	-0.040741	0.010071	-0.005493	0.029297	-0.028992	0.017548	0.005188	0.14587	0.010834	-0.003357	0.005951	0.1001	-0.046082	0.052185	-0.00351	-0.025787	-0.13107	0.19974	-0.062103	-0.006256	0.029144	0.29022	0.12222	-0.015106	-0.010223	0.076599	-0.003357	-0.066376	-0.078583	-0.00351	-0.004883
43.312	0.005188	-0.082245	0.068512	-0.00061	-0.045929	0.048676	0.06134	0.005188	0.074005	0.015869	0.005035	0.023041	-0.024109	-0.041351	0.029144	-0.00351	0.003357	-0.11704	0.43304	-0.19806	-0.025024	0.030365	0.28503	0.059204	-0.004883	-0.015717	0.57526	-0.004578	-0.086212	-0.026855	-0.004578	-0.01236
43.313	-0.005035	-0.066681	0.043182	-0.015411	-0.09552	0.063477	0.076141	0.006256	0.047455	0.020752	0.010071	0.041809	0.063629	0.039063	-0.00946	-0.007172	0.004578	-0.11307	0.31494	-0.18646	-0.02533	0.016785	0.24002	-0.000916	-0.003357	-0.014343	0.97717	-0.002899	0.061798	-0.033875	-0.005951	-0.010223
43.314	-0.007019	-0.085449	0.028229	0.00824	-0.11169	-0.042267	0.088043	0.006866	0.047455	0.018921	0.000305	0.042572	0.12558	0.11368	-0.018921	-0.002594	-0.019226	-0.13947	-0.17685	-0.070343	-0.033112	0.014038	0.21851	-0.035553	-0.00885	-0.001221	0.23895	-0.006104	0.18997	-0.094757	-0.006866	-0.002136
43.315	0.012512	-0.067444	0.033569	0.017548	-0.093689	-0.22492	0.10025	0.005646	0.036163	0.043945	0.005798	-0.044861	0.013123	0.2002	0.011749	-0.005341	-0.025482	-0.084534	-0.37079	-0.046997	-0.042419	0.006866	0.2066	-0.041046	-0.005493	-0.002441	-0.31296	-0.008087	0.17242	-0.15228	-0.004578	-0.001984
43.316	0.010223	-0.083466	-0.025177	0.006866	0.032501	-0.088959	0.11658	0.007935	0.033417	0.046387	0.013885	-0.016937	-0.073395	0.09201	0.056305	-0.005035	-0.022736	-0.13107	-0.22201	-0.023041	-0.046844	0.005646	0.1413	-0.066223	0.003967	-0.001526	-0.15198	-0.003052	0.088348	-0.074768	-0.00473	-0.001678
43.317	0.015564	-0.10391	-0.1239	0.008545	0.07019	0.003815	0.12085	0.017395	0.018005	-0.003204	0.005798	0.011597	0.056	-0.052643	0.079041	-0.007782	-0.01236	-0.13412	-0.029755	-0.009766	-0.047302	0.006256	0.13886	-0.099945	-0.006714	0	-0.059357	-0.002594	0.065308	-0.093384	-0.001373	-0.001984
43.318	0.001678	-0.098572	-0.067139	-0.000305	0.041199	0.053864	0.14801	0.013428	0.006561	-0.013123	0.001984	0.007019	0.3125	-0.003662	0.053101	-0.007629	-0.001373	-0.16586	0.019989	-0.024261	-0.05661	-0.001221	-0.018005	-0.12863	0.000763	0.002441	0.1796	-0.005188	0.041809	-0.059357	0.004425	0.002441
43.319	-0.011902	-0.09079	0.01297	0.012207	0.009155	0.039673	0.13565	0.014038	0.001526	-0.012817	0.018768	0.01236	-0.099945	0.12695	0.02655	-0.058289	0.014954	-0.14679	-0.000458	0.005188	-0.053711	0.013123	0.011749	-0.11215	0.000305	-0.002899	0.31204	-0.003052	0.027161	-0.025787	-0.000916	0.003967
43.32	-0.00946	-0.10223	0.028992	-0.006256	-0.023804	-0.001984	0.067139	0.019073	0.000153	-0.03952	0.00946	0.000305	0.022125	0.059814	-0.044403	0.066223	0.008698	-0.1648	-0.042877	0.11917	-0.063782	0.005493	0.079041	-0.14267	-0.003052	-0.007324	0.20996	-0.00412	-0.039215	0.053711	0	0.00351
43.321	-0.010986	-0.10849	0.060425	-0.010986	-0.07019	-0.022736	0.078278	0.016785	-0.026703	-0.06073	-0.003967	0.005646	0.45609	-0.029907	-0.090637	-0.048676	0.011902	-0.11444	-0.007629	0.1535	-0.065155	0.003357	0.008698	-0.16861	-0.015564	-0.012512	-0.055084	-0.009308	0	0.090637	-0.009766	0.003357
43.322	-0.011749	-0.097504	-0.073853	0.008698	-0.099182	-0.012207	0.11139	0.016479	-0.020599	-0.060883	-0.003967	0.001984	0.096741	0.043945	-0.049133	-0.14603	0.028687	-0.1416	-0.093536	0.10803	-0.06134	0.012207	-0.021057	-0.177	-0.043793	-0.010986	-0.12299	-0.003357	0.039825	0.075226	-0.002899	0.001373
43.323	-0.001678	-0.10849	-0.039063	-0.010223	-0.16373	-0.001831	0.14954	0.018463	-0.006866	-0.011902	0.010071	0.008392	-0.28976	0.009155	0.01297	0.2475	0.10162	-0.12619	-0.13962	0.052185	-0.068207	-0.001068	0.015717	-0.20691	-0.024414	-0.010223	-0.063782	-0.001068	-0.009003	0.071106	-0.001373	-0.00824
43.324	0.004272	-0.11276	0.067596	-0.009918	-0.14206	-0.065155	0.11032	0.03479	0.03006	0.10361	0.012054	-0.000916	-0.34851	-0.12238	0.010986	0.084229	0.11734	-0.21576	-0.30151	0.13443	-0.082245	-0.008545	0.021362	-0.30945	-0.025787	-0.006104	-0.17578	-0.001678	-0.041351	0.061951	-0.002441	0.002747
43.325	0.015717	-0.12497	0.016785	0.014648	0.003815	-0.001984	0.094757	0.02655	0.046387	0.084991	0.02243	0.005035	-0.16327	-0.014954	0.027924	-0.21957	0.12772	-0.17548	-0.1004	0.20859	-0.089417	-0.017242	-0.012817	-0.31784	-0.011597	-0.006866	0.043182	-0.001526	0.068207	0.038452	-0.002136	-0.005798
43.326	0.014496	-0.12665	0.001373	0.005951	0.053711	0.061035	0.034485	0.030823	0.060425	0.009308	0.016327	0.01709	0.2446	0.074463	-0.00885	-0.13184	0.12894	-0.13687	0.072784	0.21423	-0.093994	-0.026398	-0.040131	-0.2771	-0.023804	-0.007782	0.17227	-0.002747	0.27802	0.022278	-0.003662	0.001984
43.327	0.006256	-0.1181	0.010681	-0.014038	0.035706	0.076904	-0.008392	0.016632	0.077515	-0.096588	0.018616	0.021973	0.053711	0.1265	0.012054	0.071869	0.12772	-0.121	0.11475	0.2092	-0.085449	-0.00946	-0.014801	-0.22415	-0.033722	-0.010986	0.14557	-0.003357	0.18677	0.020294	-0.003204	-0.001678
43.328	0.016632	-0.099335	0.023651	0.0177	0.064087	0.078278	-0.028687	0.014801	0.076141	-0.10407	0.037079	-0.19882	-0.38788	-0.056305	0.039368	0.049286	0.069733	-0.1088	-0.03952	0.052338	-0.085297	-0.001526	0.017395	-0.1622	-0.015869	-0.014343	-0.061646	-0.000916	-0.015259	0.028839	-0.004578	-0.004425
43.329	0.009003	-0.14389	0.01236	0.04364	0.112	0.014954	0.042419	0.018616	0.063019	-0.072479	0.045319	0.18555	-0.084534	-0.22751	0.032806	-0.02121	0.026245	-0.15121	-0.23438	-0.052338	-0.082245	0.005188	0.076904	-0.11902	-0.016937	-0.013428	0.064545	-0.002136	-0.27222	-0.016479	0.000458	-0.00351
43.33	0.008698	-0.13229	0.028381	0.002747	0.003357	-0.042267	0.050201	0.018311	0.067139	0.041046	0.012207	0.17502	0.48172	-0.25833	-0.043182	-0.019531	-0.032349	-0.15533	-0.098877	-0.12421	-0.065308	0.018463	0.10117	-0.018768	-0.010223	-0.011444	0.14038	-0.004272	-0.35446	-0.029907	-0.001526	-0.007019
43.331	0.016785	-0.12955	0.027771	0.0177	-0.013123	-0.043182	-0.020599	0.019379	-0.015259	0.14114	-0.014954	-0.040741	0.054932	-0.38925	-0.10483	-0.026703	-0.076904	-0.09079	0.24674	-0.1973	-0.05188	0.05127	0.07431	0.016632	-0.021973	-0.012817	0.062866	-0.00351	-0.16357	-0.054779	-0.00412	-0.007629
43.332	0.018158	-0.11536	0.002136	0.015259	0.011902	0.019836	-0.005798	-0.000763	-0.10086	0.1178	-0.024872	0.068817	-0.005493	-0.46387	-0.089264	-0.006866	-0.069885	-0.037537	0.65536	-0.23804	-0.036163	0.06485	0.1059	0.057526	0.002747	-0.016327	0.041809	-0.007935	-0.053711	-0.020752	-0.001526	-0.012512
43.333	0.010223	-0.10025	0.029602	0.013885	0.003662	0.054169	0.09079	-0.014954	-0.088959	0.065002	-0.019684	0.050049	0.044861	-0.22614	-0.014038	-0.016174	-0.023041	-0.067444	0.40283	-0.3537	-0.035095	0.076294	0.057526	0.07843	-0.011902	-0.016479	0.020294	-0.004578	-0.063477	0.000763	-0.007782	-0.009613
43.334	0.013885	-0.13031	-0.004883	0.001526	-0.032196	0.036011	0.097046	-0.015106	0.033875	0.097961	-0.002899	-0.14313	0.084686	0.044556	0.046539	0.008545	-0.005493	-0.076752	0.49881	-0.34088	-0.032043	0.072784	0.052338	0.14084	0.015106	-0.020294	0.084991	-0.002747	-0.063171	0.05127	-0.001831	-0.013733
43.335	-0.000458	-0.1207	-0.011292	-0.001373	-0.072021	0.096741	0.005341	-0.010376	0.10986	0.062714	-0.01358	-0.053864	0.17044	0.14923	0.021362	0.01297	-0.003662	-0.042419	0.62759	-0.24597	-0.042114	0.067444	0.000916	0.10086	0.005798	-0.018768	0.051117	-0.001984	-0.012512	0.060272	-0.000153	-0.005493
43.336	0.007019	-0.12421	0.00412	0.017242	-0.043335	0.046692	0.057526	-0.00412	0.12192	0.041504	-0.004578	-0.028534	-0.079346	0.12421	-0.021057	0.00351	0.027618	-0.040741	0.50674	-0.17151	-0.043335	0.048065	-0.032501	0.083618	-0.003815	-0.019836	-0.015411	-0.007935	-0.032349	0.027466	-0.003357	-0.00351
43.337	-0.000153	-0.11261	-0.004272	0.00946	0.053253	-0.053101	0.058136	-0.00946	0.018768	-0.01236	0.003204	-0.043945	0.13504	-0.000305	-0.024872	-0.002441	0.031891	-0.014954	0.40146	0.058594	-0.041656	0.036926	-0.10086	0.056	0.000305	-0.020905	0.087738	0.001068	-0.052032	0.009003	-0.002136	-0.006409
43.338	-0.000153	-0.090485	0.002441	0.002747	0.023193	0.01709	0.022583	-0.013123	0.003662	-0.043488	0.005493	-0.028076	-0.008392	0.000763	-0.023193	-0.00412	0.082397	0.006256	0.2507	0.21668	-0.04364	0.031738	-0.12543	0.060425	-0.004272	-0.024261	0.27771	-0.002289	-0.074615	-0.018158	-0.001068	-0.007629
